<svg xmlns="http://www.w3.org/2000/svg" width="24" height="24" viewBox="0 0 24 24" fill="none" stroke="currentColor" stroke-width="1.5" stroke-linecap="round" stroke-linejoin="round"><path d="M16.5 6.5C16.5 5.12 17.62 4 19 4C20.38 4 21.5 5.12 21.5 6.5C21.5 7.88 20.38 9 19 9C17.62 9 16.5 7.88 16.5 6.5Z" fill="currentColor" fill-opacity="0.2" stroke="none"/><path d="M4.5 13C4.5 11.62 5.62 10.5 7 10.5C8.38 10.5 9.5 11.62 9.5 13C9.5 14.38 8.38 15.5 7 15.5C5.62 15.5 4.5 14.38 4.5 13Z" fill="currentColor" fill-opacity="0.2" stroke="none"/><path d="M16.5 19.5C16.5 18.12 17.62 17 19 17C20.38 17 21.5 18.12 21.5 19.5C21.5 20.88 20.38 22 19 22C17.62 22 16.5 20.88 16.5 19.5Z" fill="currentColor" fill-opacity="0.2" stroke="none"/><path d="M15.25 5.25C15.25 3.87 16.37 2.75 17.75 2.75C19.13 2.75 20.25 3.87 20.25 5.25C20.25 6.63 19.13 7.75 17.75 7.75C16.37 7.75 15.25 6.63 15.25 5.25Z"/><path d="M3.25 11.75C3.25 10.37 4.37 9.25 5.75 9.25C7.13 9.25 8.25 10.37 8.25 11.75C8.25 13.13 7.13 14.25 5.75 14.25C4.37 14.25 3.25 13.13 3.25 11.75Z"/><path d="M15.25 18.25C15.25 16.87 16.37 15.75 17.75 15.75C19.13 15.75 20.25 16.87 20.25 18.25C20.25 19.63 19.13 20.75 17.75 20.75C16.37 20.75 15.25 19.63 15.25 18.25Z"/><path d="M7.95 10.56L15.55 6.44"/><path d="M7.95 12.94L15.55 17.06"/></svg>
