<svg xmlns="http://www.w3.org/2000/svg" width="24" height="24" viewBox="0 0 24 24" fill="none"><path d="M5 16L5 6Q5 5.8 5.08 5.62Q5.15 5.43 5.29 5.29Q5.43 5.15 5.62 5.08Q5.8 5 6 5L16 5Q16.1 5 16.2 5.02Q16.29 5.04 16.38 5.08Q16.47 5.11 16.56 5.17Q16.64 5.22 16.71 5.29Q16.78 5.36 16.83 5.44Q16.89 5.53 16.92 5.62Q16.96 5.71 16.98 5.8Q17 5.9 17 6Q17 6.1 16.98 6.2Q16.96 6.29 16.92 6.38Q16.89 6.47 16.83 6.56Q16.78 6.64 16.71 6.71Q16.64 6.78 16.56 6.83Q16.47 6.89 16.38 6.92Q16.29 6.96 16.2 6.98Q16.1 7 16 7L8.41 7L18.71 17.29Q18.78 17.36 18.83 17.44Q18.89 17.53 18.92 17.62Q18.96 17.71 18.98 17.8Q19 17.9 19 18Q19 18.1 18.98 18.2Q18.96 18.29 18.92 18.38Q18.89 18.47 18.83 18.56Q18.78 18.64 18.71 18.71Q18.64 18.78 18.56 18.83Q18.47 18.89 18.38 18.92Q18.29 18.96 18.2 18.98Q18.1 19 18 19Q17.9 19 17.8 18.98Q17.71 18.96 17.62 18.92Q17.53 18.89 17.44 18.83Q17.36 18.78 17.29 18.71L7 8.41L7 16Q7 16.1 6.98 16.2Q6.96 16.29 6.92 16.38Q6.89 16.47 6.83 16.56Q6.78 16.64 6.71 16.71Q6.64 16.78 6.56 16.83Q6.47 16.89 6.38 16.92Q6.29 16.96 6.2 16.98Q6.1 17 6 17Q5.9 17 5.8 16.98Q5.71 16.96 5.62 16.92Q5.53 16.89 5.44 16.83Q5.36 16.78 5.29 16.71Q5.22 16.64 5.17 16.56Q5.11 16.47 5.08 16.38Q5.04 16.29 5.02 16.2Q5 16.1 5 16Z" fill="currentColor" fill-rule="evenodd"/></svg>
